<?xml version="1.0" standalone="no"?><!DOCTYPE svg PUBLIC "-//W3C//DTD SVG 1.1//EN" "http://www.w3.org/Graphics/SVG/1.1/DTD/svg11.dtd"><svg t="1720333763848" class="icon" viewBox="0 0 1026 1024" version="1.1" xmlns="http://www.w3.org/2000/svg" p-id="28920" xmlns:xlink="http://www.w3.org/1999/xlink" width="256.5" height="256"><path d="M5.1 832h254.2c2.8 0 5.1-2.3 5.1-5.1s-2.3-5.1-5.1-5.1H5.1c-2.8 0-5.1 2.3-5.1 5.1s2.3 5.1 5.1 5.1z m315.2 0h55.9c2.8 0 5.1-2.3 5.1-5.1s-2.3-5.1-5.1-5.1h-55.9c-2.8 0-5.1 2.3-5.1 5.1s2.3 5.1 5.1 5.1z m106.8 0h254.2c2.8 0 5.1-2.3 5.1-5.1s-2.3-5.1-5.1-5.1H427.1c-2.8 0-5.1 2.3-5.1 5.1s2.3 5.1 5.1 5.1z m315.1 0h55.9c2.8 0 5.1-2.3 5.1-5.1s-2.3-5.1-5.1-5.1h-55.9c-2.8 0-5.1 2.3-5.1 5.1s2.3 5.1 5.1 5.1z m106.8 0h172.8c2.8 0 5.1-2.3 5.1-5.1s-2.3-5.1-5.1-5.1H849c-2.8 0-5.1 2.3-5.1 5.1s2.3 5.1 5.1 5.1z" fill="#0B3808" p-id="28921"></path><path d="M536.4 692.2c25.3 0 45.7 20.5 45.7 45.7v162.7c0 25.3-20.5 45.7-45.7 45.7-25.3 0-45.7-20.5-45.7-45.7V738c-0.1-25.3 20.4-45.8 45.7-45.8z" fill="#E9AB29" p-id="28922"></path><path d="M510.9 938.7c7.3 4.9 16 7.7 25.4 7.7 25.3 0 45.7-20.5 45.7-45.7V738c0-25.3-20.5-45.7-45.7-45.7-9.4 0-18.1 2.8-25.4 7.7 12.3 8.2 20.3 22.2 20.3 38v162.7c0.1 15.8-8 29.8-20.3 38z" fill="#956B14" p-id="28923"></path><path d="M531.3 741.8c0-1.3-0.1-2.5-0.2-3.8-5.5 0.1-10 4.6-10 10.2v5.1c0 5.6 4.6 10.2 10.2 10.2v-21.7z m-80.8 169.3c3.1 16.7 17.8 29 35 29 19.7 0 35.6-15.9 35.6-35.6V784.7c0-5.6 4.6-10.2 10.2-10.2v129.9c0 25.3-20.5 45.7-45.7 45.7-25.3 0-45.7-20.5-45.7-45.7v-1.6c5-0.4 9.7 3.1 10.6 8.3z" fill="#0B3808" p-id="28924"></path><path d="M538.9 133.1c94 0 170.3 76.2 170.3 170.3v289.7c0 94-76.2 170.3-170.3 170.3-94 0-170.3-76.2-170.3-170.3V303.4c0-94.1 76.2-170.3 170.3-170.3z" fill="#B4E953" p-id="28925"></path><path d="M513.5 761.5c8.3 1.2 16.8 1.9 25.4 1.9 94 0 170.3-76.2 170.3-170.3V303.4c0-94-76.2-170.3-170.3-170.3-8.6 0-17.1 0.6-25.4 1.9 82 12.3 144.9 83 144.9 168.4v289.7c-0.1 85.4-62.9 156.1-144.9 168.4z" fill="#87C21C" p-id="28926"></path><path d="M488.1 138.2c-2.8 0-5.1-2.3-5.1-5.1s2.3-5.1 5.1-5.1c91.9 0 168 70.9 174.9 162 0.2 2.8-1.9 5.2-4.7 5.5-2.8 0.2-5.2-1.9-5.5-4.7-6.5-85.8-78.2-152.6-164.7-152.6z m165 157.5c-0.1-2.8 2-5.2 4.8-5.3 2.8-0.1 5.2 2 5.3 4.8 0.1 1.7 0.1 3.5 0.2 5.2 0 2.8-2.2 5.1-5 5.2-2.8 0-5.1-2.2-5.2-5 0-1.6 0-3.3-0.1-4.9z m0.2 55.7c0-2.8 2.3-5.1 5.1-5.1s5.1 2.3 5.1 5.1v241.7c0 4.3-0.2 8.6-0.5 12.8-0.2 2.8-2.6 4.9-5.4 4.7-2.8-0.2-4.9-2.6-4.7-5.4 0.3-4 0.4-8 0.4-12.1V351.4z m-0.9 258.7c0.3-2.8 2.8-4.8 5.6-4.5s4.8 2.8 4.5 5.6c-0.2 1.7-0.4 3.5-0.6 5.2-0.4 2.8-2.9 4.7-5.7 4.4-2.8-0.4-4.7-2.9-4.4-5.7 0.2-1.7 0.4-3.3 0.6-5z m-14.3 52.2c1.2-2.5 4.2-3.7 6.7-2.5 2.5 1.2 3.7 4.2 2.5 6.7-28.5 61.6-90.2 101.9-159.3 101.9-21.1 0-41.7-3.7-61.1-11-2.6-1-4-3.9-3-6.5s3.9-4 6.5-3c18.3 6.8 37.7 10.3 57.6 10.3 65.1 0.1 123.3-37.8 150.1-95.9zM425.9 746.2c2.6 1.1 3.9 4 2.8 6.6s-4 3.9-6.6 2.8c-1.6-0.7-3.2-1.3-4.8-2-2.6-1.1-3.7-4.1-2.6-6.7 1.1-2.6 4.1-3.7 6.7-2.6 1.4 0.6 2.9 1.3 4.5 1.9z m-46.1-28.3c2.1 1.8 2.3 5.1 0.5 7.2-1.8 2.1-5.1 2.3-7.2 0.5-38.1-33.1-60.4-81-60.4-132.5V484.5c0-2.8 2.3-5.1 5.1-5.1s5.1 2.3 5.1 5.1v108.6c0 48.5 21 93.6 56.9 124.8zM322.9 479.4c0 2.8-2.3 5.1-5.1 5.1s-5.1-2.3-5.1-5.1v-5.1c0-2.8 2.3-5.1 5.1-5.1s5.1 2.3 5.1 5.1v5.1z m0-55.9V303.4c0-2.8-2.3-5.1-5.1-5.1s-5.1 2.3-5.1 5.1v120.1c0 2.8 2.3 5.1 5.1 5.1s5.1-2.3 5.1-5.1z" fill="#0B3808" p-id="28927"></path><path d="M559.2 430.4m-28 0a28 28 0 1 0 56 0 28 28 0 1 0-56 0Z" fill="#43AD11" p-id="28928"></path><path d="M427.1 547.4m-28 0a28 28 0 1 0 56 0 28 28 0 1 0-56 0Z" fill="#43AD11" p-id="28929"></path><path d="M569.4 654.1m-12.7 0a12.7 12.7 0 1 0 25.4 0 12.7 12.7 0 1 0-25.4 0Z" fill="#43AD11" p-id="28930"></path><path d="M671.1 643.9m-12.7 0a12.7 12.7 0 1 0 25.4 0 12.7 12.7 0 1 0-25.4 0Z" fill="#43AD11" p-id="28931"></path><path d="M472.8 242.4m-17.8 0a17.8 17.8 0 1 0 35.6 0 17.8 17.8 0 1 0-35.6 0Z" fill="#43AD11" p-id="28932"></path></svg>